<?xml version="1.0" encoding="UTF-8" standalone="no"?>
<!-- Created with Inkscape (http://www.inkscape.org/) -->

<svg
   width="1000"
   height="1000"
   viewBox="0 0 1000 1000"
   version="1.1"
   id="svg1"
   inkscape:version="1.4.3 (0d15f75, 2025-12-25)"
   sodipodi:docname="gear.svg"
   xmlns:inkscape="http://www.inkscape.org/namespaces/inkscape"
   xmlns:sodipodi="http://sodipodi.sourceforge.net/DTD/sodipodi-0.dtd"
   xmlns="http://www.w3.org/2000/svg"
   xmlns:svg="http://www.w3.org/2000/svg">
  <sodipodi:namedview
     id="namedview1"
     pagecolor="#ffffff"
     bordercolor="#000000"
     borderopacity="0.25"
     inkscape:showpageshadow="2"
     inkscape:pageopacity="0.0"
     inkscape:pagecheckerboard="0"
     inkscape:deskcolor="#d1d1d1"
     inkscape:document-units="px"
     showgrid="true"
     inkscape:zoom="0.46734522"
     inkscape:cx="461.11523"
     inkscape:cy="589.49998"
     inkscape:window-width="1212"
     inkscape:window-height="732"
     inkscape:window-x="148"
     inkscape:window-y="53"
     inkscape:window-maximized="0"
     inkscape:current-layer="layer1">
    <inkscape:grid
       id="grid1"
       units="mm"
       originx="0"
       originy="0"
       spacingx="99.999999"
       spacingy="99.999999"
       empcolor="#0099e5"
       empopacity="0.30196078"
       color="#0099e5"
       opacity="0.14901961"
       empspacing="5"
       enabled="true"
       visible="true" />
  </sodipodi:namedview>
  <defs
     id="defs1">
    <inkscape:path-effect
       effect="fillet_chamfer"
       id="path-effect1"
       is_visible="true"
       lpeversion="1"
       nodesatellites_param="F,0,0,1,0,90,0,1 @ F,0,0,1,0,90,0,1 @ F,0,0,1,0,90,0,1 @ F,0,0,1,0,90,0,1 @ F,0,0,1,0,90,0,1 @ F,0,0,1,0,90,0,1"
       radius="90"
       unit="px"
       method="auto"
       mode="F"
       chamfer_steps="1"
       flexible="false"
       use_knot_distance="true"
       apply_no_radius="true"
       apply_with_radius="true"
       only_selected="false"
       hide_knots="false" />
  </defs>
  <g
     inkscape:label="Layer 1"
     inkscape:groupmode="layer"
     id="layer1">
    <path
       d="m 500.18164,69.910156 a 430.08993,430.08993 0 0 0 -72.44141,6.146485 C 411.37902,123.25982 454.95736,208.84527 362.80273,262.05078 270.64809,315.25628 218.31565,234.72143 169.25586,225.28906 A 430.08993,430.08993 0 0 0 96.8125,350.76367 C 129.51107,388.5345 225.42187,393.58899 225.42187,500 c 0,106.41102 -95.9108,111.46548 -128.60937,149.23633 a 430.08993,430.08993 0 0 0 72.44336,125.47461 c 49.05978,-9.43237 101.39224,-89.96723 193.54687,-36.76172 92.15465,53.20551 48.57627,138.79096 64.9375,185.99414 a 430.08993,430.08993 0 0 0 72.44141,6.14648 430.08993,430.08993 0 0 0 72.44141,-6.14648 c 16.36121,-47.2032 -27.21714,-132.78864 64.9375,-185.99414 92.15464,-53.20551 144.48708,27.32936 193.54687,36.76172 A 430.08993,430.08993 0 0 0 903.55078,649.23633 C 870.85221,611.46549 774.94141,606.41101 774.94141,500 c 0,-106.41102 95.9108,-111.46549 128.60937,-149.23633 A 430.08993,430.08993 0 0 0 831.10742,225.28906 C 782.04764,234.72143 729.71518,315.25628 637.56055,262.05078 545.4059,208.84526 588.98427,123.25982 572.62305,76.056641 a 430.08993,430.08993 0 0 0 -72.44141,-6.146485 z m 0,265.330074 A 164.76044,164.76044 0 0 1 664.94141,500 164.76044,164.76044 0 0 1 500.18164,664.75977 164.76044,164.76044 0 0 1 335.42187,500 164.76044,164.76044 0 0 1 500.18164,335.24023 Z"
       style="stroke-width:1.07522"
       id="path2" />
  </g>
</svg>
