<?xml version="1.0" encoding="UTF-8" standalone="no"?>
<!-- Created with Inkscape (http://www.inkscape.org/) -->

<svg
   width="1000"
   height="1000"
   viewBox="0 0 1000 1000"
   version="1.1"
   id="svg1"
   inkscape:version="1.4.3 (0d15f75, 2025-12-25)"
   sodipodi:docname="go.svg"
   xmlns:inkscape="http://www.inkscape.org/namespaces/inkscape"
   xmlns:sodipodi="http://sodipodi.sourceforge.net/DTD/sodipodi-0.dtd"
   xmlns="http://www.w3.org/2000/svg"
   xmlns:svg="http://www.w3.org/2000/svg">
  <sodipodi:namedview
     id="namedview1"
     pagecolor="#ffffff"
     bordercolor="#000000"
     borderopacity="0.25"
     inkscape:showpageshadow="2"
     inkscape:pageopacity="0.0"
     inkscape:pagecheckerboard="0"
     inkscape:deskcolor="#d1d1d1"
     inkscape:document-units="px"
     showgrid="true"
     inkscape:zoom="0.39518795"
     inkscape:cx="617.42774"
     inkscape:cy="393.48366"
     inkscape:window-width="1212"
     inkscape:window-height="732"
     inkscape:window-x="148"
     inkscape:window-y="34"
     inkscape:window-maximized="0"
     inkscape:current-layer="layer1">
    <inkscape:grid
       id="grid1"
       units="mm"
       originx="0"
       originy="0"
       spacingx="99.999999"
       spacingy="99.999999"
       empcolor="#0099e5"
       empopacity="0.30196078"
       color="#0099e5"
       opacity="0.14901961"
       empspacing="5"
       enabled="true"
       visible="true" />
  </sodipodi:namedview>
  <defs
     id="defs1">
    <inkscape:path-effect
       effect="fillet_chamfer"
       id="path-effect7"
       is_visible="true"
       lpeversion="1"
       nodesatellites_param="F,0,0,1,0,40,0,1 @ F,0,0,1,0,40,0,1 @ F,0,0,1,0,40,0,1 @ F,0,0,1,0,40,0,1 @ F,0,0,1,0,40,0,1 @ F,0,0,1,0,40,0,1"
       radius="40"
       unit="px"
       method="auto"
       mode="F"
       chamfer_steps="1"
       flexible="false"
       use_knot_distance="true"
       apply_no_radius="true"
       apply_with_radius="true"
       only_selected="false"
       hide_knots="false" />
    <inkscape:path-effect
       effect="fillet_chamfer"
       id="path-effect6"
       is_visible="true"
       lpeversion="1"
       nodesatellites_param="F,0,0,1,0,34,0,1 @ F,0,0,1,0,34,0,1 @ F,0,0,1,0,34,0,1 @ F,0,0,1,0,34,0,1 @ F,0,0,1,0,34,0,1 @ F,0,0,1,0,34,0,1"
       radius="34"
       unit="px"
       method="auto"
       mode="F"
       chamfer_steps="1"
       flexible="false"
       use_knot_distance="true"
       apply_no_radius="true"
       apply_with_radius="true"
       only_selected="false"
       hide_knots="false" />
    <inkscape:path-effect
       effect="fillet_chamfer"
       id="path-effect2"
       is_visible="true"
       lpeversion="1"
       nodesatellites_param="F,0,0,1,0,60,0,1 @ F,0,0,1,0,60,0,1 @ F,0,0,1,0,60,0,1 @ F,0,0,1,0,60,0,1"
       radius="61"
       unit="px"
       method="auto"
       mode="F"
       chamfer_steps="1"
       flexible="false"
       use_knot_distance="true"
       apply_no_radius="true"
       apply_with_radius="true"
       only_selected="false"
       hide_knots="false" />
    <inkscape:path-effect
       effect="fillet_chamfer"
       id="path-effect1"
       is_visible="true"
       lpeversion="1"
       nodesatellites_param="F,0,0,1,0,90,0,1 @ F,0,0,1,0,90,0,1 @ F,0,0,1,0,90,0,1 @ F,0,0,1,0,90,0,1 @ F,0,0,1,0,90,0,1 @ F,0,0,1,0,90,0,1"
       radius="90"
       unit="px"
       method="auto"
       mode="F"
       chamfer_steps="1"
       flexible="false"
       use_knot_distance="true"
       apply_no_radius="true"
       apply_with_radius="true"
       only_selected="false"
       hide_knots="false" />
  </defs>
  <g
     inkscape:label="Layer 1"
     inkscape:groupmode="layer"
     id="layer1">
    <path
       d="M 510.52452,32.286909 A 458.85655,458.85655 0 0 0 51.667969,491.14345 458.85655,458.85655 0 0 0 510.52452,950 458.85655,458.85655 0 0 0 969.38106,491.14345 458.85655,458.85655 0 0 0 510.52452,32.286909 Z m 0,47.403227 A 411.45244,411.45244 0 0 1 921.97784,491.14345 411.45244,411.45244 0 0 1 510.52452,902.59677 411.45244,411.45244 0 0 1 99.071196,491.14345 411.45244,411.45244 0 0 1 510.52452,79.690136 Z"
       style="fill:#000000;stroke-width:1.01968"
       id="path3" />
    <path
       d="m 351.26029,227.60436 329.38169,254.19577 a 30.869445,30.869445 90.000003 0 1 0,48.87649 L 366.32865,773.24354 a 30.869238,30.869238 89.999818 0 0 1.6e-4,48.87628 l 17.07668,13.17852 a 51.831596,51.831596 179.99985 0 0 63.33335,-1.7e-4 L 841.46228,530.67659 a 30.869377,30.869377 90.000007 0 0 1e-5,-48.87642 L 431.67047,165.54963 a 51.831545,51.831545 1.3725382e-4 0 0 -63.33332,-1.5e-4 l -17.07672,13.17857 a 30.869264,30.869264 90.000166 0 0 -1.4e-4,48.87631 z"
       style="stroke-width:0.752157"
       id="path7"
       inkscape:path-effect="#path-effect7"
       inkscape:original-d="m 319.59371,203.16611 392.71485,303.07227 -377.64649,291.4434 80.41016,62.0546 458.05666,-353.498 -473.12502,-365.12696 z"
       transform="translate(-28,-9.2804496)" />
  </g>
</svg>
