<?xml version="1.0" encoding="UTF-8" standalone="no"?>
<!-- Created with Inkscape (http://www.inkscape.org/) -->

<svg
   width="1000"
   height="1000"
   viewBox="0 0 1000 1000"
   version="1.1"
   id="svg1"
   inkscape:version="1.4.3 (0d15f75, 2025-12-25)"
   sodipodi:docname="zoom_out.svg"
   xmlns:inkscape="http://www.inkscape.org/namespaces/inkscape"
   xmlns:sodipodi="http://sodipodi.sourceforge.net/DTD/sodipodi-0.dtd"
   xmlns="http://www.w3.org/2000/svg"
   xmlns:svg="http://www.w3.org/2000/svg">
  <sodipodi:namedview
     id="namedview1"
     pagecolor="#ffffff"
     bordercolor="#000000"
     borderopacity="0.25"
     inkscape:showpageshadow="2"
     inkscape:pageopacity="0.0"
     inkscape:pagecheckerboard="0"
     inkscape:deskcolor="#d1d1d1"
     inkscape:document-units="px"
     showgrid="true"
     inkscape:zoom="0.46734522"
     inkscape:cx="522.09799"
     inkscape:cy="461.11523"
     inkscape:window-width="1212"
     inkscape:window-height="732"
     inkscape:window-x="148"
     inkscape:window-y="53"
     inkscape:window-maximized="0"
     inkscape:current-layer="layer1">
    <inkscape:grid
       id="grid1"
       units="mm"
       originx="0"
       originy="0"
       spacingx="99.999999"
       spacingy="99.999999"
       empcolor="#0099e5"
       empopacity="0.30196078"
       color="#0099e5"
       opacity="0.14901961"
       empspacing="5"
       enabled="true"
       visible="true" />
  </sodipodi:namedview>
  <defs
     id="defs1">
    <inkscape:path-effect
       effect="fillet_chamfer"
       id="path-effect2"
       is_visible="true"
       lpeversion="1"
       nodesatellites_param="F,0,0,1,0,60,0,1 @ F,0,0,1,0,60,0,1 @ F,0,0,1,0,60,0,1 @ F,0,0,1,0,60,0,1"
       radius="61"
       unit="px"
       method="auto"
       mode="F"
       chamfer_steps="1"
       flexible="false"
       use_knot_distance="true"
       apply_no_radius="true"
       apply_with_radius="true"
       only_selected="false"
       hide_knots="false" />
    <inkscape:path-effect
       effect="fillet_chamfer"
       id="path-effect1"
       is_visible="true"
       lpeversion="1"
       nodesatellites_param="F,0,0,1,0,90,0,1 @ F,0,0,1,0,90,0,1 @ F,0,0,1,0,90,0,1 @ F,0,0,1,0,90,0,1 @ F,0,0,1,0,90,0,1 @ F,0,0,1,0,90,0,1"
       radius="90"
       unit="px"
       method="auto"
       mode="F"
       chamfer_steps="1"
       flexible="false"
       use_knot_distance="true"
       apply_no_radius="true"
       apply_with_radius="true"
       only_selected="false"
       hide_knots="false" />
  </defs>
  <g
     inkscape:label="Layer 1"
     inkscape:groupmode="layer"
     id="layer1">
    <path
       id="path4"
       style="fill:#000000"
       d="M 845.0009,403.34207 A 245.0009,245.0009 0 0 1 600,648.34297 245.0009,245.0009 0 0 1 354.9991,403.34207 245.0009,245.0009 0 0 1 600,158.34117 245.0009,245.0009 0 0 1 845.0009,403.34207 Z M 600,53.494141 a 350.15152,350.15152 0 0 0 -350.15234,350.150389 350.15152,350.15152 0 0 0 63.625,201.26563 L 67.587891,868.32812 a 60,60 0 0 0 2.919921,84.80274 l 2.392579,2.23437 a 60,60 0 0 0 84.800779,-2.91992 L 401.02734,691.76953 A 350.15152,350.15152 0 0 0 600,753.79688 350.15152,350.15152 0 0 0 950.15234,403.64453 350.15152,350.15152 0 0 0 600,53.494141 Z" />
    <rect
       style="fill:#000000"
       id="rect5"
       width="406.55173"
       height="72.751358"
       x="400"
       y="363.62433" />
  </g>
</svg>
