<?xml version="1.0" encoding="UTF-8" standalone="no"?>
<!-- Created with Inkscape (http://www.inkscape.org/) -->

<svg
   width="1600"
   height="900"
   viewBox="0 0 423.33333 238.125"
   version="1.1"
   id="svg1"
   inkscape:version="1.4.2 (ebf0e940, 2025-05-08)"
   sodipodi:docname="splash.svg"
   inkscape:export-filename="splash.png"
   inkscape:export-xdpi="96"
   inkscape:export-ydpi="96"
   xmlns:inkscape="http://www.inkscape.org/namespaces/inkscape"
   xmlns:sodipodi="http://sodipodi.sourceforge.net/DTD/sodipodi-0.dtd"
   xmlns="http://www.w3.org/2000/svg"
   xmlns:svg="http://www.w3.org/2000/svg">
  <sodipodi:namedview
     id="namedview1"
     pagecolor="#ffffff"
     bordercolor="#000000"
     borderopacity="0.25"
     inkscape:showpageshadow="2"
     inkscape:pageopacity="0.0"
     inkscape:pagecheckerboard="true"
     inkscape:deskcolor="#d1d1d1"
     inkscape:document-units="px"
     inkscape:zoom="0.37188151"
     inkscape:cx="545.8728"
     inkscape:cy="692.42486"
     inkscape:window-width="1360"
     inkscape:window-height="866"
     inkscape:window-x="59"
     inkscape:window-y="34"
     inkscape:window-maximized="0"
     inkscape:current-layer="layer1"
     showgrid="false">
    <inkscape:grid
       id="grid3"
       units="px"
       originx="0"
       originy="0"
       spacingx="0.26458333"
       spacingy="0.26458333"
       empcolor="#0099e5"
       empopacity="0.30196078"
       color="#0099e5"
       opacity="0.14901961"
       empspacing="5"
       enabled="true"
       visible="false" />
  </sodipodi:namedview>
  <defs
     id="defs1">
    <inkscape:path-effect
       effect="fillet_chamfer"
       id="path-effect5"
       is_visible="true"
       lpeversion="1"
       nodesatellites_param="F,0,0,1,0,5.2489344,0,1 @ F,0,0,1,0,5.2489344,0,1 @ F,0,0,1,0,5.2489344,0,1"
       radius="30"
       unit="px"
       method="auto"
       mode="F"
       chamfer_steps="1"
       flexible="false"
       use_knot_distance="true"
       apply_no_radius="true"
       apply_with_radius="true"
       only_selected="false"
       hide_knots="false" />
    <inkscape:path-effect
       effect="fillet_chamfer"
       id="path-effect4"
       is_visible="true"
       lpeversion="1"
       nodesatellites_param="F,0,0,1,0,44.979166,0,1 @ F,0,0,1,0,44.979166,0,1 @ F,0,0,1,0,44.979166,0,1 @ F,0,0,1,0,44.979166,0,1"
       radius="170"
       unit="px"
       method="auto"
       mode="F"
       chamfer_steps="1"
       flexible="false"
       use_knot_distance="true"
       apply_no_radius="true"
       apply_with_radius="true"
       only_selected="false"
       hide_knots="false" />
    <rect
       x="1266.5175"
       y="1959.5175"
       width="804.51733"
       height="342.51727"
       id="rect2" />
    <rect
       x="1003.6553"
       y="1768.345"
       width="931.96558"
       height="509.79315"
       id="rect1" />
  </defs>
  <g
     inkscape:label="Layer 1"
     inkscape:groupmode="layer"
     id="layer1">
    <path
       style="fill:#ffffff;stroke-width:0.264999;stroke-dasharray:none"
       id="rect3"
       width="221.6259"
       height="221.6259"
       x="24.653715"
       y="23.469309"
       inkscape:path-effect="#path-effect4"
       sodipodi:type="rect"
       d="M 69.632881,23.469309 H 201.30045 a 44.979166,44.979166 45 0 1 44.97917,44.979166 l 0,131.667565 a 44.979166,44.979166 135 0 1 -44.97917,44.97917 l -131.667569,0 A 44.979166,44.979166 45 0 1 24.653715,200.11604 V 68.448475 A 44.979166,44.979166 135 0 1 69.632881,23.469309 Z"
       transform="matrix(2.3089031,0,0,1.2925718,-86.650206,-56.273342)" />
    <path
       sodipodi:type="star"
       style="fill:#b7bec8;stroke-width:0.264999;stroke-dasharray:none"
       id="path4"
       inkscape:flatsided="true"
       sodipodi:sides="3"
       sodipodi:cx="48.912834"
       sodipodi:cy="48.527691"
       sodipodi:r1="80.924339"
       sodipodi:r2="40.46217"
       sodipodi:arg1="0.51779292"
       sodipodi:arg2="1.5649905"
       inkscape:rounded="0"
       inkscape:randomized="0"
       d="m 113.98026,88.612766 -129.665016,0.752825 a 3.0304737,3.0304737 59.667349 0 1 -2.650815,-4.530397 L 45.84497,-27.834413 a 3.0304737,3.0304737 179.66735 0 1 5.248846,-0.03047 L 116.57829,84.051895 a 3.0304737,3.0304737 119.66735 0 1 -2.59803,4.560871 z"
       inkscape:transform-center-x="-0.34093485"
       inkscape:transform-center-y="-31.612127"
       transform="matrix(1.4513073,0,0,1.5784517,-168.25366,252.24313)"
       inkscape:path-effect="#path-effect5" />
    <text
       xml:space="preserve"
       transform="matrix(0.26458333,0,0,0.26458333,227.54175,0)"
       id="text1"
       style="text-align:start;writing-mode:lr-tb;direction:ltr;white-space:pre;shape-inside:url(#rect1);display:inline;fill:#000000" />
    <path
       d="m 107.82652,210.17765 q 0,6.10229 -4.01419,10.01097 -3.982597,3.90866 -10.904688,3.90866 -3.919348,0 -7.206558,-1.15666 -3.255585,-1.19652 -5.46813,-2.59248 v -8.41558 h 0.316078 q 2.813093,2.67224 6.258325,4.26762 3.445248,1.55548 6.60601,1.55548 3.919361,0 6.131896,-1.59538 2.212547,-1.59537 2.212547,-5.02542 0,-2.63235 -1.2011,-3.98844 -1.201094,-1.35605 -4.614716,-2.31329 -1.264316,-0.35895 -3.318822,-0.83756 -2.022881,-0.47861 -3.698094,-1.03699 -4.646327,-1.55549 -6.60601,-4.54681 -1.928075,-3.03121 -1.928075,-7.41849 0,-2.75203 0.885018,-5.18497 0.916626,-2.43296 2.749877,-4.34739 1.770019,-1.87456 4.488289,-2.95145 2.749877,-1.11675 6.131893,-1.11675 3.160775,0 6.38476,0.99711 3.25562,0.95721 5.40496,2.35317 v 8.01675 h -0.31608 q -2.27577,-2.11388 -5.53139,-3.5497 -3.255592,-1.47572 -6.384759,-1.47572 -3.255585,0 -5.499737,1.59537 -2.244153,1.55549 -2.244153,4.66647 0,2.75201 1.359135,4.14797 1.327527,1.39595 4.298642,2.27341 1.643604,0.4786 3.666506,0.95723 2.054501,0.4786 3.413622,0.87745 4.140634,1.19653 6.384784,4.10807 2.24416,2.95146 2.24416,7.81735 z"
       id="text2"
       style="font-size:45.5393px;stroke-width:6.06915"
       aria-label="s" />
    <path
       d="m 134.53948,191.75613 h -22.51711 q 0,6.51392 0.84815,11.38354 0.84815,4.80638 2.32559,7.90523 1.4227,3.03561 3.36526,4.55342 1.96991,1.5178 4.32285,1.5178 3.11902,0 6.26539,-2.84588 3.17373,-2.90913 4.51437,-5.69177 h 0.2736 v 12.96458 q -2.59919,2.52967 -5.30781,4.23721 -2.70862,1.70751 -5.69084,1.70751 -7.60602,0 -11.87415,-9.48626 -4.26815,-9.54952 -4.26815,-27.06751 0,-17.32828 4.07663,-27.51022 4.10397,-10.18194 10.77976,-10.18194 6.18332,0 9.52121,8.34793 3.36525,8.34793 3.36525,23.71569 z m -5.00683,-9.10682 q -0.0275,-9.35979 -2.05199,-14.48238 -1.99727,-5.1226 -6.10123,-5.1226 -4.13133,0 -6.59372,5.62852 -2.43503,5.62854 -2.76334,13.97646 z"
       id="text2-7"
       style="font-size:51.3204px;stroke-width:7.11033"
       aria-label="e" />
    <path
       d="m 170.32233,229.95892 h -7.64688 v -47.70038 q -3.53869,6.64967 -7.03673,9.93018 -3.49804,3.19184 -7.56551,3.19184 -8.09427,0 -12.93458,-13.56534 -4.79961,-13.65402 -4.79961,-37.59288 0,-12.7674 1.66765,-22.52026 1.70834,-9.84153 4.47424,-16.49121 2.68452,-6.472367 6.30459,-10.018865 3.62006,-3.546496 7.64686,-3.546496 3.66072,0 6.46728,1.773249 2.84723,1.773247 5.77581,5.231086 l 0.4881,-4.255798 h 7.15878 z m -7.64688,-61.70906 v -56.03467 q -3.17262,-3.10318 -5.61311,-4.34446 -2.44048,-1.24127 -5.28773,-1.24127 -6.62998,0 -10.08733,9.84153 -3.45736,9.75288 -3.45736,26.95339 0,17.37784 2.76588,26.77605 2.80657,9.30956 8.78575,9.30956 3.33533,0 6.67066,-3.10318 3.33533,-3.19185 6.22324,-8.15695 z"
       id="text2-6"
       style="font-size:84.6626px;stroke-width:10.2651"
       aria-label="q" />
    <path
       d="m 209.72482,231.56205 h -7.39205 v -72.44046 q 0,-8.7703 -0.35391,-16.40162 -0.35385,-7.7452 -1.29753,-12.07341 -0.98297,-4.78379 -2.83097,-7.0618 -1.84804,-2.39191 -4.79699,-2.39191 -3.02762,0 -6.33047,4.32821 -3.30282,4.3282 -6.33046,11.04831 v 94.99268 H 173.0004 V 54.333499 h 7.39204 v 64.125751 q 3.46014,-8.3147 7.1562,-12.98461 3.69602,-4.6699 7.58867,-4.6699 7.11679,0 10.85218,12.41511 3.73533,12.41512 3.73533,35.76463 z"
       id="text2-6-3"
       style="font-size:95.997px;stroke-width:11.4393"
       aria-label="h" />
    <path
       d="m 219.24109,234.69221 h -7.99272 V 7.8711975 h 7.99272 z"
       id="text2-6-3-6"
       style="font-size:110.985px;stroke-width:13.4566"
       aria-label="l" />
    <path
       d="m 270.74819,232.25593 h -11.7903 l -21.29862,-59.12864 -5.80006,14.02643 v 45.10221 h -8.93782 V 44.10834 h 8.93782 v 120.67564 l 25.81508,-67.592877 h 11.26733 l -24.67408,62.393417 z"
       id="text2-6-3-6-8"
       style="font-size:105.429px;stroke-width:12.9602"
       aria-label="k" />
    <path
       d="m 298.7161,182.88268 h -29.12797 q 0,8.71928 1.09716,15.23758 1.09715,6.43365 3.00837,10.58166 1.84041,4.06336 4.35326,6.09504 2.54824,2.03167 5.59201,2.03167 4.03475,0 8.10484,-3.80939 4.10553,-3.89405 5.83978,-7.6188 h 0.35391 v 17.35392 q -3.36228,3.38614 -6.86614,5.67177 -3.50383,2.28565 -7.3616,2.28565 -9.83911,0 -15.36032,-12.698 -5.52122,-12.78265 -5.52122,-36.2316 0,-23.19499 5.27347,-36.82417 5.30886,-13.62917 13.94462,-13.62917 7.99869,0 12.31658,11.17423 4.35325,11.17423 4.35325,31.74497 z m -6.47681,-12.19007 q -0.0353,-12.52869 -2.65443,-19.3856 -2.58364,-6.85692 -7.8925,-6.85692 -5.34427,0 -8.52962,7.53415 -3.1499,7.53413 -3.57461,18.70837 z"
       id="text2-6-3-6-8-5"
       style="font-size:66.6772px;stroke-width:9.35635"
       aria-label="e" />
    <path
       d="m 349.3672,190.64337 h -0.66261 q -2.78297,-0.37911 -5.43342,-0.53077 -2.58418,-0.18956 -6.1623,-0.18956 -5.76471,0 -11.13188,1.47858 -5.36717,1.44066 -10.33676,3.75332 v 30.06441 h -12.45709 v -42.34798 h 12.45709 v 6.25552 q 7.42127,-3.41211 13.05346,-4.81486 5.69847,-1.44066 11.59572,-1.44066 3.24682,0 4.70457,0.11373 1.45772,0.0758 4.37322,0.34121 z"
       id="text2-6-3-6-8-5-8"
       style="font-size:67.6135px;stroke-width:8.56746"
       aria-label="r" />
  </g>
</svg>
