<?xml version="1.0" encoding="UTF-8" standalone="no"?>
<!-- Created with Inkscape (http://www.inkscape.org/) -->

<svg
   width="1024"
   height="1024"
   viewBox="0 0 270.93333 270.93333"
   version="1.1"
   id="svg1"
   inkscape:version="1.4.2 (ebf0e940, 2025-05-08)"
   sodipodi:docname="icon.svg"
   xmlns:inkscape="http://www.inkscape.org/namespaces/inkscape"
   xmlns:sodipodi="http://sodipodi.sourceforge.net/DTD/sodipodi-0.dtd"
   xmlns="http://www.w3.org/2000/svg"
   xmlns:svg="http://www.w3.org/2000/svg">
  <sodipodi:namedview
     id="namedview1"
     pagecolor="#ffffff"
     bordercolor="#000000"
     borderopacity="0.25"
     inkscape:showpageshadow="2"
     inkscape:pageopacity="0.0"
     inkscape:pagecheckerboard="true"
     inkscape:deskcolor="#d1d1d1"
     inkscape:document-units="px"
     inkscape:zoom="0.68697888"
     inkscape:cx="437.42247"
     inkscape:cy="466.53545"
     inkscape:window-width="1360"
     inkscape:window-height="866"
     inkscape:window-x="59"
     inkscape:window-y="34"
     inkscape:window-maximized="0"
     inkscape:current-layer="layer1"
     showgrid="false">
    <inkscape:grid
       id="grid3"
       units="px"
       originx="0"
       originy="0"
       spacingx="0.26458333"
       spacingy="0.26458333"
       empcolor="#0099e5"
       empopacity="0.30196078"
       color="#0099e5"
       opacity="0.14901961"
       empspacing="5"
       enabled="true"
       visible="false" />
  </sodipodi:namedview>
  <defs
     id="defs1">
    <inkscape:path-effect
       effect="fillet_chamfer"
       id="path-effect1"
       is_visible="true"
       lpeversion="1"
       nodesatellites_param="F,0,0,1,0,5.2489344,0,1 @ F,0,0,1,0,5.2489344,0,1 @ F,0,0,1,0,5.2489344,0,1"
       radius="30"
       unit="px"
       method="auto"
       mode="F"
       chamfer_steps="1"
       flexible="false"
       use_knot_distance="true"
       apply_no_radius="true"
       apply_with_radius="true"
       only_selected="false"
       hide_knots="false" />
    <inkscape:path-effect
       effect="fillet_chamfer"
       id="path-effect4"
       is_visible="true"
       lpeversion="1"
       nodesatellites_param="F,0,0,1,0,44.979166,0,1 @ F,0,0,1,0,44.979166,0,1 @ F,0,0,1,0,44.979166,0,1 @ F,0,0,1,0,44.979166,0,1"
       radius="170"
       unit="px"
       method="auto"
       mode="F"
       chamfer_steps="1"
       flexible="false"
       use_knot_distance="true"
       apply_no_radius="true"
       apply_with_radius="true"
       only_selected="false"
       hide_knots="false" />
    <rect
       x="1266.5175"
       y="1959.5175"
       width="804.51733"
       height="342.51727"
       id="rect2" />
    <rect
       x="1003.6553"
       y="1768.345"
       width="931.96558"
       height="509.79315"
       id="rect1" />
  </defs>
  <g
     inkscape:label="Layer 1"
     inkscape:groupmode="layer"
     id="layer1">
    <path
       style="fill:#ffffff;stroke-width:0.264999;stroke-dasharray:none"
       id="rect3"
       width="221.6259"
       height="221.6259"
       x="24.653715"
       y="23.469309"
       inkscape:path-effect="#path-effect4"
       sodipodi:type="rect"
       d="M 69.632881,23.469309 H 201.30045 a 44.979166,44.979166 45 0 1 44.97917,44.979166 l 0,131.667565 a 44.979166,44.979166 135 0 1 -44.97917,44.97917 l -131.667569,0 A 44.979166,44.979166 45 0 1 24.653715,200.11604 V 68.448475 A 44.979166,44.979166 135 0 1 69.632881,23.469309 Z"
       transform="translate(-2.679444e-7,1.184406)" />
    <path
       sodipodi:type="star"
       style="fill:#ececec;stroke-width:0.264999;stroke-dasharray:none"
       id="path4"
       inkscape:flatsided="true"
       sodipodi:sides="3"
       sodipodi:cx="48.912834"
       sodipodi:cy="48.527691"
       sodipodi:r1="80.924339"
       sodipodi:r2="40.46217"
       sodipodi:arg1="0.51779292"
       sodipodi:arg2="1.5649905"
       inkscape:rounded="0"
       inkscape:randomized="0"
       d="m 113.98026,88.612766 -129.665016,0.752825 a 3.0304737,3.0304737 59.667349 0 1 -2.650815,-4.530397 L 45.84497,-27.834413 a 3.0304737,3.0304737 179.66735 0 1 5.248846,-0.03047 L 116.57829,84.051895 a 3.0304737,3.0304737 119.66735 0 1 -2.59803,4.560871 z"
       inkscape:transform-center-x="-0.34093485"
       inkscape:transform-center-y="-31.612127"
       transform="matrix(1.4513073,0,0,1.5784517,68.444875,75.788106)"
       inkscape:path-effect="#path-effect1" />
    <text
       xml:space="preserve"
       transform="matrix(0.26458333,0,0,0.26458333,227.54175,0)"
       id="text1"
       style="text-align:start;writing-mode:lr-tb;direction:ltr;white-space:pre;shape-inside:url(#rect1);display:inline;fill:#000000" />
    <path
       d="m 75.280384,197.30221 q 0,4.87726 -2.379975,8.00127 -2.361234,3.124 -6.465284,3.124 -2.323754,0 -4.27271,-0.92446 -1.930215,-0.95632 -3.242011,-2.07204 v -6.72616 h 0.187399 q 1.667856,2.13579 3.710511,3.4109 2.042655,1.24322 3.916651,1.24322 2.323754,0 3.63555,-1.27511 1.311797,-1.2751 1.311797,-4.01657 0,-2.10391 -0.712119,-3.18776 -0.712118,-1.08383 -2.736033,-1.8489 -0.749598,-0.28689 -1.967695,-0.66942 -1.199356,-0.38253 -2.192574,-0.82882 -2.754772,-1.24322 -3.91665,-3.63404 -1.143138,-2.42269 -1.143138,-5.92923 0,-2.19956 0.524719,-4.14409 0.543459,-1.94454 1.630377,-3.47465 1.049437,-1.49824 2.661072,-2.35895 1.630377,-0.89256 3.635552,-0.89256 1.873995,0 3.78547,0.79694 1.930215,0.76505 3.204536,1.88077 v 6.40739 h -0.1874 q -1.34928,-1.68952 -3.279495,-2.8371 -1.930215,-1.17947 -3.785471,-1.17947 -1.930214,0 -3.260751,1.2751 -1.330537,1.24323 -1.330537,3.72968 0,2.19955 0.805817,3.31527 0.787079,1.11571 2.548634,1.81702 0.974478,0.38252 2.173834,0.76507 1.218098,0.38252 2.023916,0.7013 2.454934,0.95633 3.78547,3.28338 1.330538,2.35895 1.330538,6.24802 z"
       id="text2"
       style="font-size:45.5393px;stroke-width:4.17789"
       aria-label="s" />
    <path
       d="M 91.118277,182.5788 H 77.768062 q 0,5.20625 0.502862,9.0983 0.502862,3.8415 1.378822,6.31826 0.843508,2.42621 1.995232,3.63932 1.16794,1.2131 2.562983,1.2131 1.849239,0 3.714701,-2.27457 1.881682,-2.32512 2.676531,-4.54915 h 0.162216 v 10.36195 q -1.541037,2.02184 -3.146956,3.38659 -1.60592,1.36473 -3.374054,1.36473 -4.509549,0 -7.040087,-7.5819 -2.530539,-7.63246 -2.530539,-21.63372 0,-13.84963 2.41699,-21.98755 2.433212,-8.13792 6.391232,-8.13792 3.66604,0 5.64505,6.67208 1.995232,6.67209 1.995232,18.95478 z m -2.968519,-7.27863 q -0.01625,-7.48082 -1.216605,-11.57505 -1.184162,-4.09424 -3.617373,-4.09424 -2.449428,0 -3.909354,4.4986 -1.443711,4.49861 -1.638364,11.17069 z"
       id="text2-7"
       style="font-size:51.3204px;stroke-width:4.89462"
       aria-label="e" />
    <path
       d="m 192.56207,124.32193 h -7.77177 v -22.24046 q -3.5965,3.10043 -7.15167,4.62998 -3.55517,1.48821 -7.68908,1.48821 -8.2265,0 -13.14586,-6.32489 -4.87802,-6.366231 -4.87802,-17.527804 0,-5.952839 1.69491,-10.500146 1.73624,-4.588647 4.54731,-7.689084 2.72838,-3.017759 6.40757,-4.671325 3.67918,-1.653566 7.77176,-1.653566 3.72052,0 6.57292,0.826783 2.89375,0.826783 5.87016,2.43901 l 0.49607,-1.984279 h 7.2757 z M 184.7903,95.549878 V 69.42353 q -3.22445,-1.446871 -5.7048,-2.025619 -2.48035,-0.578748 -5.37409,-0.578748 -6.73828,0 -10.25211,4.588646 -3.51383,4.547308 -3.51383,12.567105 0,8.102475 2.81106,12.484426 2.85241,4.34061 8.92926,4.34061 3.38981,0 6.77962,-1.446869 3.38981,-1.48821 6.32489,-3.803203 z"
       id="text2-6"
       style="font-size:84.6626px;stroke-width:7.06633"
       aria-label="q"
       transform="scale(0.58336322,1.7141979)" />
    <path
       d="m 135.69505,214.3937 h -4.38269 v -57.89807 q 0,-7.00967 -0.20983,-13.109 -0.20979,-6.19036 -0.76929,-9.64968 -0.5828,-3.82345 -1.67846,-5.64415 -1.09569,-1.91173 -2.8441,-1.91173 -1.79505,0 -3.75328,3.45932 -1.95822,3.45932 -3.75328,8.83037 v 75.92294 h -4.38268 V 72.743696 h 4.38268 v 51.252544 q 2.05149,-6.64553 4.24285,-10.37796 2.19134,-3.73242 4.49926,-3.73242 4.21949,0 6.43417,9.92278 2.21465,9.92279 2.21465,28.5849 z"
       id="text2-6-3"
       style="font-size:95.997px;stroke-width:7.87459"
       aria-label="h" />
    <path
       d="m 141.33717,216.89548 h -4.73882 V 35.608681 h 4.73882 z"
       id="text2-6-3-6"
       style="font-size:110.985px;stroke-width:9.26326"
       aria-label="l" />
    <path
       d="m 171.87531,214.94828 h -6.99037 l -12.62778,-47.25859 -3.43881,11.21063 v 36.04796 h -5.29916 V 64.571233 h 5.29916 V 161.0213 l 15.30555,-54.02364 h 6.68031 l -14.62906,49.86797 z"
       id="text2-6-3-6-8"
       style="font-size:105.429px;stroke-width:8.92157"
       aria-label="k" />
    <path
       d="m 188.45726,175.48669 h -17.26974 q 0,6.96889 0.6505,12.17864 0.65049,5.1421 1.78364,8.4574 1.09116,3.24764 2.58101,4.87146 1.51083,1.62382 3.31546,1.62382 2.39217,0 4.80529,-3.04466 2.43414,-3.11232 3.46236,-6.08933 h 0.20983 v 13.87013 q -1.99347,2.70637 -4.07088,4.53316 -2.07739,1.82681 -4.36463,1.82681 -5.83353,0 -9.10701,-10.14888 -3.27349,-10.21654 -3.27349,-28.95812 0,-18.53861 3.1266,-29.43174 3.14758,-10.89312 8.26765,-10.89312 4.74236,0 7.3024,8.93101 2.58101,8.93101 2.58101,25.37218 z m -3.84005,-9.74292 q -0.0209,-10.01356 -1.57379,-15.49395 -1.53182,-5.48039 -4.6794,-5.48039 -3.16857,0 -5.05714,6.02167 -1.86755,6.02166 -2.11936,14.95267 z"
       id="text2-6-3-6-8-5"
       style="font-size:66.6772px;stroke-width:6.44074"
       aria-label="e" />
    <path
       d="m 218.48789,181.68943 h -0.39286 q -1.65,-0.30301 -3.22143,-0.42422 -1.53214,-0.15151 -3.65358,-0.15151 -3.41785,0 -6.6,1.18176 -3.18215,1.15145 -6.12858,2.99984 v 24.02899 h -7.38571 v -33.84664 h 7.38571 v 4.99973 q 4.40001,-2.72713 7.73929,-3.84828 3.37858,-1.15145 6.87501,-1.15145 1.92501,0 2.7893,0.0909 0.86427,0.0606 2.59285,0.27271 z"
       id="text2-6-3-6-8-5-8"
       style="font-size:67.6135px;stroke-width:5.89768"
       aria-label="r" />
  </g>
</svg>
